<svg width="3092" height="946" viewBox="0 0 3092 946" xmlns="http://www.w3.org/2000/svg">
<path d="M1120.11 271.062H1152.27H1390C1403.06 271.529 1413.78 276.423 1422.17 285.746C1431.02 295.069 1435.45 306.257 1435.45 319.309C1433.12 347.277 1417.97 362.427 1390 364.758H1143.88C1126.17 365.69 1111.48 372.449 1099.83 385.035C1088.17 397.621 1079.55 412.072 1073.96 428.387C1068.83 444.236 1066.27 460.551 1066.27 477.332C1066.27 494.113 1068.83 510.661 1073.96 526.977C1079.55 542.826 1088.17 557.043 1099.83 569.629C1111.48 582.215 1126.17 588.974 1143.88 589.906H1390C1403.06 590.372 1413.78 595.267 1422.17 604.59C1431.02 613.913 1435.45 625.1 1435.45 638.152C1434.99 650.738 1430.33 661.46 1421.47 670.316C1413.08 678.707 1402.59 683.135 1390 683.602H1133.39H1120.11C1087.48 681.737 1060.44 669.384 1039 646.543C1018.02 623.236 1002.87 596.898 993.547 567.531C984.69 538.164 980.262 508.098 980.262 477.332C980.262 446.566 984.923 416.5 994.246 387.133C1003.57 357.766 1018.72 331.661 1039.7 308.82C1060.67 285.513 1087.48 272.927 1120.11 271.062ZM1434.05 474.535C1434.05 487.587 1429.39 498.542 1420.07 507.398C1411.21 516.721 1400.26 521.383 1387.21 521.383H1176.04C1162.99 521.383 1151.8 516.954 1142.48 508.098C1133.62 498.775 1129.2 487.587 1129.2 474.535C1129.2 461.483 1133.62 450.296 1142.48 440.973C1151.8 432.116 1162.99 427.688 1176.04 427.688H1387.21C1400.26 427.688 1411.21 432.349 1420.07 441.672C1429.39 450.529 1434.05 461.483 1434.05 474.535ZM1638.93 646.543C1617.48 614.379 1596.04 572.193 1574.6 519.984L1497.68 321.406C1495.35 316.279 1493.95 310.685 1493.49 304.625C1492.56 291.573 1496.29 280.385 1504.68 271.062C1513.53 261.74 1524.72 257.078 1538.24 257.078C1552.69 257.078 1563.41 260.341 1570.4 266.867C1577.86 272.927 1583.92 280.852 1588.58 290.641L1655.01 472.438C1662.47 491.549 1669.69 509.729 1676.68 526.977C1684.14 543.758 1692.3 559.141 1701.16 573.125C1710.01 587.109 1720.04 594.568 1731.22 595.5C1741.94 594.568 1751.5 587.109 1759.89 573.125C1769.21 559.141 1777.37 543.758 1784.36 526.977C1791.82 509.729 1799.28 491.549 1806.74 472.438L1871.77 290.641C1876.43 280.852 1882.25 272.927 1889.25 266.867C1896.7 260.341 1908.12 257.078 1923.51 257.078C1937.03 257.078 1947.98 261.74 1956.37 271.062C1965.23 280.385 1969.19 291.573 1968.26 304.625C1967.79 310.685 1966.39 316.279 1964.06 321.406L1887.15 519.984C1865.71 573.125 1844.26 615.544 1822.82 647.242C1801.84 678.474 1771.31 694.323 1731.22 694.789C1690.67 694.323 1659.9 678.241 1638.93 646.543ZM2263.33 252.184C2287.57 252.184 2311.34 254.98 2334.65 260.574C2358.42 266.168 2381.03 274.559 2402.47 285.746C2423.92 296.467 2442.79 310.918 2459.11 329.098C2475.89 347.277 2484.98 368.953 2486.38 394.125V423.492V646.543C2483.58 674.512 2468.2 689.661 2440.23 691.992C2427.18 691.992 2415.76 687.797 2405.97 679.406C2396.65 670.549 2391.98 659.595 2391.98 646.543V415.801C2391.05 401.35 2385.46 389.464 2375.2 380.141C2365.41 370.352 2354.23 362.66 2341.64 357.066C2329.52 351.473 2316.7 347.277 2303.18 344.48C2290.13 341.684 2276.85 340.285 2263.33 340.285C2249.81 340.285 2236.29 341.684 2222.77 344.48C2209.72 347.277 2196.9 351.473 2184.32 357.066C2172.2 362.66 2161.01 370.352 2150.75 380.141C2140.96 389.464 2135.6 401.35 2134.67 415.801V646.543C2132.34 674.512 2117.19 689.661 2089.22 691.992C2076.17 691.992 2064.75 687.797 2054.96 679.406C2045.64 670.549 2040.98 659.595 2040.98 646.543V423.492V394.125C2042.38 368.953 2051.23 347.277 2067.55 329.098C2083.86 310.918 2102.74 296.467 2124.18 285.746C2145.63 274.559 2168 266.168 2191.31 260.574C2215.08 254.98 2239.09 252.184 2263.33 252.184ZM2561.2 317.91C2561.2 304.858 2565.62 293.904 2574.48 285.047C2583.8 275.724 2594.99 271.062 2608.04 271.062H3014.99C3028.04 271.062 3039.23 275.491 3048.55 284.348C3057.41 293.671 3061.84 304.858 3061.84 317.91C3061.84 330.962 3057.17 342.15 3047.85 351.473C3038.99 360.329 3028.04 364.758 3014.99 364.758H2859.06V647.941C2856.27 675.91 2840.88 691.06 2812.91 693.391C2799.86 693.391 2788.44 689.195 2778.65 680.805C2769.33 671.948 2764.67 660.993 2764.67 647.941V364.758H2608.04C2594.99 364.758 2584.04 360.096 2575.18 350.773C2565.86 341.917 2561.2 330.962 2561.2 317.91Z" fill="currentColor"/>
<path d="M789.858 263.04C820.261 284.47 817.213 317.633 805.427 335.725L762.279 402.405V558.626C762.279 747.563 747.564 762.279 558.626 762.279H387.821C198.884 762.279 184.168 747.563 184.168 558.626V387.82C184.168 198.883 198.884 184.168 387.821 184.168H558.626C611.576 184.168 650.822 185.324 679.911 191.144L469.676 516.056L362.502 393.168C343.95 373.828 318.303 377.585 305.19 390.593C289.463 406.202 289.673 429.011 304.52 446.696L444.66 607.293C452.136 615.872 462.975 620.799 474.367 620.799C475.299 620.799 476.232 620.773 477.178 620.707C489.463 619.827 500.776 613.126 507.463 602.799L717.213 278.623C733.426 254.001 765.393 245.789 789.858 263.04Z" fill="currentColor"/>
</svg>
